<svg width="20" height="20" viewBox="0 0 20 20" fill="none" xmlns="http://www.w3.org/2000/svg">
<g clip-path="url(#clip0_7386_3608)">
<path d="M11.0893 0H8.22545C7.84676 0 7.53906 0.3077 7.53906 0.68639C7.53906 1.06508 7.84676 1.37278 8.22545 1.37278H11.0893C11.468 1.37278 11.7757 1.06508 11.7757 0.68639C11.7757 0.3077 11.468 0 11.0893 0Z" fill="#8B96B1"/>
<path d="M18.7347 4.5207L16.8649 2.6509C16.6045 2.39054 16.1785 2.39054 15.8945 2.6509C15.6341 2.91125 15.6341 3.33729 15.8945 3.62129L17.7406 5.46745C17.8827 5.60947 18.0483 5.65681 18.214 5.65681C18.3797 5.65681 18.5691 5.58582 18.6874 5.46745C18.995 5.20709 18.995 4.78106 18.7347 4.5207Z" fill="#8B96B1"/>
<path d="M9.6462 2.86389C4.91246 2.86389 1.07812 6.69823 1.07812 11.432C1.07812 16.1657 4.91246 20.0001 9.6462 20.0001C14.3799 20.0001 18.2142 16.1657 18.2142 11.432C18.2142 6.69823 14.3799 2.86389 9.6462 2.86389ZM13.1965 12.355H9.6462C9.26751 12.355 8.95981 12.0473 8.95981 11.6686V7.21895C8.95981 6.84025 9.26751 6.53255 9.6462 6.53255C10.0249 6.53255 10.3326 6.84025 10.3326 7.21895V11.0059H13.1965C13.5752 11.0059 13.8829 11.3136 13.8829 11.6923C13.8829 12.0474 13.5752 12.355 13.1965 12.355Z" fill="#8B96B1"/>
</g>
<defs>
<clipPath id="clip0_7386_3608">
<rect width="20" height="20" fill="white"/>
</clipPath>
</defs>
</svg>
