<svg width="49" height="32" viewBox="0 0 49 32" fill="none" xmlns="http://www.w3.org/2000/svg">
<g clip-path="url(#clip0_2166_18)">
<path d="M44.437 31.9019C42.2392 31.9019 40.9357 30.7772 40.8359 29.1573H42.9374C42.9374 29.6973 43.2366 30.4161 44.5367 30.4608C45.4378 30.4608 45.9365 29.9208 45.9365 29.515C45.8368 28.8856 45.0354 28.8409 44.2375 28.7033C43.3364 28.5726 42.6382 28.3903 42.136 28.1668C41.4378 27.8056 41.0354 27.0386 41.0354 26.2304C41.0354 24.7893 42.2392 23.6646 44.3372 23.6646C46.3389 23.6646 47.639 24.6999 47.7353 26.2751H45.737C45.737 25.8727 45.6373 25.1951 44.437 25.1951C43.6356 25.1951 43.1369 25.3293 43.0371 25.914C43.0371 26.7257 44.7362 26.681 46.0363 26.9939C47.2366 27.3104 48.038 28.0739 48.038 29.1573C48.038 31.1384 46.4387 31.9019 44.437 31.9019Z" fill="#98949E"/>
<path d="M6.14453 18.6105L13.0439 14.6036L16.7447 20.9527H7.44461" fill="#98949E"/>
<path fill-rule="evenodd" clip-rule="evenodd" d="M19.6523 23.6492V31.663H21.6523V23.6492H19.6523Z" fill="#98949E"/>
<path d="M2.9415 27.7748C2.9415 29.0336 4.0421 30.0689 5.239 30.0689C6.54252 30.0689 7.53994 29.0336 7.53994 27.7748C7.53994 26.5607 6.54252 25.4808 5.239 25.4808C4.0421 25.4808 2.9415 26.5607 2.9415 27.7748ZM5.13926 31.9158C2.9415 31.9158 1.04297 30.0689 1.04297 27.7748C1.04297 25.4808 2.9415 23.6785 5.13926 23.6785C6.04037 23.6785 6.84175 23.9055 7.53994 24.3974V23.768H9.54165V31.7335H7.53994V31.2383C6.94149 31.6888 6.04037 31.9158 5.13926 31.9158Z" fill="#98949E"/>
<path d="M31.8414 20.9509L22.2422 4.2082L29.1415 0.156658L41.1414 20.9509" fill="#98949E"/>
<path d="M12.1407 27.7748C12.1407 29.0336 13.1416 30.0689 14.4417 30.0689C15.6386 30.0689 16.7426 29.0336 16.7426 27.7748C16.7426 26.5607 15.6386 25.4808 14.4417 25.4808C13.1416 25.4808 12.1407 26.5607 12.1407 27.7748ZM14.3419 31.9158C12.041 31.9158 10.2422 30.0689 10.2422 27.7748C10.2422 25.4808 12.041 23.6785 14.3419 23.6785C15.2396 23.6785 16.041 23.9055 16.7426 24.3974V21.0233H18.7409V31.7335H16.7426V31.2383C16.041 31.6888 15.2396 31.9158 14.3419 31.9158Z" fill="#98949E"/>
<path d="M14.2461 11.4543L21.2452 7.49557L28.946 20.9504H21.6442V22.9315H19.6459V20.9504" fill="#98949E"/>
<path d="M46.7391 22.994C46.237 22.994 45.7383 22.5434 45.7383 22.0034C45.7383 21.4634 46.237 21.0129 46.7391 21.0129C47.3376 21.0129 47.74 21.4634 47.74 22.0034C47.74 22.5434 47.3376 22.994 46.7391 22.994ZM46.7391 21.1505C46.237 21.1505 45.9378 21.5529 45.9378 22.0034C45.9378 22.454 46.237 22.8598 46.7391 22.8598C47.2378 22.8598 47.5371 22.454 47.5371 22.0034C47.5371 21.5529 47.2378 21.1505 46.7391 21.1505Z" fill="#98949E"/>
<path d="M46.9448 22.5469L46.7453 22.0964H46.5459V22.5469H46.3945V21.467H46.8451C46.9448 21.467 47.1443 21.6046 47.1443 21.7834C47.1443 21.9622 47.0446 22.0517 46.9448 22.0964L47.1443 22.5469H46.9448ZM46.7453 21.6046H46.5459V21.9622H46.7453C46.9448 21.9622 46.9448 21.9175 46.9448 21.7834C46.9448 21.6905 46.9448 21.6046 46.7453 21.6046Z" fill="#98949E"/>
<path d="M33.5353 27.7748C33.5353 29.0336 34.5361 30.0689 35.8362 30.0689C37.0365 30.0689 38.1337 29.0336 38.1337 27.7748C38.1337 26.5607 37.0365 25.4808 35.8362 25.4808C34.5361 25.4808 33.5353 26.5607 33.5353 27.7748ZM35.733 31.9158C33.4355 31.9158 31.6367 30.0689 31.6367 27.7748C31.6367 25.4808 33.4355 23.6785 35.733 23.6785C36.6341 23.6785 37.4355 23.9055 38.1337 24.3974V23.768H40.0357V31.7335H38.1337V31.2383C37.4355 31.6888 36.6341 31.9158 35.733 31.9158Z" fill="#98949E"/>
<path d="M24.3399 27.7748C24.3399 29.0336 25.4405 30.0689 26.6409 30.0689C27.941 30.0689 28.9418 29.0336 28.9418 27.7748C28.9418 26.5607 27.941 25.4808 26.6409 25.4808C25.4405 25.4808 24.3399 26.5607 24.3399 27.7748ZM28.9418 21.0233H30.9401V31.7335H28.9418V31.2383C28.3399 31.6888 27.5386 31.9158 26.6409 31.9158C24.3399 31.9158 22.4414 30.0689 22.4414 27.7748C22.4414 25.4808 24.3399 23.6785 26.6409 23.6785C27.5386 23.6785 28.3399 23.9055 28.9418 24.3974V21.0233Z" fill="#98949E"/>
</g>
<defs>
<clipPath id="clip0_2166_18">
<rect width="48" height="32" fill="white" transform="translate(0.890625)"/>
</clipPath>
</defs>
</svg>
