<svg width="87" height="32" viewBox="0 0 87 32" fill="none" xmlns="http://www.w3.org/2000/svg">
<g clip-path="url(#clip0_2166_51)">
<path d="M9.84206 21.9283C8.22534 21.9283 7.44825 20.6854 7.85407 19.2476C8.69188 16.2676 14.0755 11.8516 17.7442 11.8516C20.4195 11.8516 20.2159 14.2454 18.6475 16.2873L17.7806 17.2469C14.6712 20.2982 11.7886 21.9283 9.84206 21.9283ZM22.9548 1.83307C18.2726 1.83489 13.1166 4.69925 9.87843 7.41198L10.1341 7.78252C15.1602 4.25925 22.1344 1.96834 24.057 5.40471C25.0722 7.21743 23.349 10.8785 20.9221 13.772C21.5024 12.4942 21.1192 10.0407 17.7352 10.0407C12.1097 10.0407 1.03516 17.4927 1.03516 25.1193C1.03516 28.1742 3.15443 30.1673 6.64534 30.1673C15.9893 30.1673 28.6613 14.8509 28.6613 7.15816C28.6613 4.44071 27.0981 1.83307 22.9548 1.83307Z" fill="#98949E"/>
<path d="M34.9836 21.9283C34.4396 21.9283 33.9869 21.7385 33.7036 21.3919C33.4083 21.0287 33.3203 20.5138 33.4603 19.9821C33.7712 18.8287 35.0145 17.9225 36.2931 17.9225H39.3003L38.2258 21.9283H34.9836ZM43.6265 9.91958C42.7665 8.86213 41.3742 8.38904 40.3778 8.38904H34.9131L33.9854 11.8487H39.1392L39.6331 11.9007C39.6382 11.9007 40.1062 11.9552 40.3672 12.3065C40.5782 12.6003 40.6091 13.0367 40.4574 13.609L40.2138 14.5196H36.9665C34.1716 14.5196 30.2752 16.5247 29.4065 19.7632C28.9745 21.3781 29.3531 22.777 30.1923 23.805C31.0251 24.8254 32.5967 25.3887 34.2945 25.3887H37.3018H37.3H41.1222L42.9149 18.6938L44.2345 13.7727C44.7527 11.8378 44.1912 10.6087 43.6265 9.91958Z" fill="#98949E"/>
<path d="M81.1671 8.38904C79.6885 8.38904 78.3147 8.82649 77.1976 9.65449C76.0696 10.4898 75.4475 11.4934 75.0765 12.8778C74.2718 15.8781 76.6296 17.3261 78.5242 18.3527C79.8831 19.0887 81.0584 19.7236 80.8038 20.6639C80.6242 21.3389 80.3293 21.9294 78.6576 21.9294H73.5547L72.6289 25.3887H78.2773C79.7918 25.3887 81.1896 25.0734 82.3158 24.2087C83.4431 23.341 84.0802 22.1323 84.474 20.657C84.8522 19.253 84.5973 17.9119 83.6936 16.9112C82.9405 16.0709 81.8573 15.4872 80.9027 14.9716C79.6795 14.3134 78.526 13.6923 78.7275 12.9396C78.8507 12.4839 79.3027 11.8487 80.2907 11.8487H85.2547L86.1827 8.38904H81.1671Z" fill="#98949E"/>
<path d="M51.551 8.38904C50.0728 8.38904 48.6994 8.82649 47.5819 9.65449C46.4539 10.4898 45.8317 11.4934 45.4572 12.8778C44.6543 15.8781 47.0139 17.3261 48.9081 18.3527C50.2677 19.0887 51.4401 19.7236 51.1881 20.6639C51.0066 21.3389 50.7132 21.9294 49.0415 21.9294H43.9394L43.0117 25.3887H48.6597C50.1761 25.3887 51.5735 25.0734 52.6997 24.2087C53.8288 23.341 54.4644 22.1323 54.8583 20.657C55.235 19.253 54.9797 17.9119 54.0797 16.9112C53.3266 16.0709 52.2415 15.4872 51.2852 14.9716C50.0637 14.3134 48.9117 13.6923 49.1135 12.9396C49.2346 12.4839 49.6884 11.8487 50.6746 11.8487H55.6357L56.5652 8.38904H51.551Z" fill="#98949E"/>
<path d="M59.2583 8.38904L54.8281 25.3887H58.571L62.9976 8.38904H59.2583Z" fill="#98949E"/>
<path d="M72.9545 8.38904C66.3651 8.41267 62.9167 12.801 61.8222 16.889C60.5255 21.7363 63.1058 25.389 67.8247 25.389H70.9869L71.9127 21.9298H68.7516C66.9855 21.9298 64.5567 20.5399 65.5356 16.889C66.3131 13.9872 69.1425 11.849 72.2462 11.849H74.2542L75.1818 8.3894H72.9545V8.38904Z" fill="#98949E"/>
</g>
<defs>
<clipPath id="clip0_2166_51">
<rect width="85.3333" height="32" fill="white" transform="translate(0.890625)"/>
</clipPath>
</defs>
</svg>
