<svg width="88" height="32" viewBox="0 0 88 32" fill="none" xmlns="http://www.w3.org/2000/svg">
<path d="M66.0414 23.8571V27.0933L55.6038 27.1956V23.9194C57.6339 23.8571 58.0579 22.9369 58.0579 21.5856C58.0579 16.958 58.2892 12.9839 56.9572 12.326C54.79 11.2191 52.4729 12.0415 51.929 15.1532V21.3633C51.929 23.5726 52.5286 23.8216 54.0191 23.8616V27.0978L44.2196 27.2V23.9238C45.9799 23.8616 46.3654 22.9414 46.5967 21.3633V14.273C46.4253 12.6327 45.8214 11.8148 44.1596 11.6903C41.3543 11.9126 40.8746 13.3262 40.9131 15.7222V21.3589C40.9731 23.5682 41.6841 23.8571 43.0589 23.9194V27.0933H32.4414V23.9194C34.0432 24.0438 35.1868 23.8571 35.1868 22.1146V13.4507C35.1868 11.6281 34.0432 11.8103 32.557 11.8103L32.6513 8.34743H40.866V10.4634C42.7805 7.76065 47.6331 6.83603 50.9739 9.9922C51.8048 11.5081 51.6335 10.8724 52.7899 9.92997C55.8222 7.40947 59.8653 7.34724 62.2424 9.92997C63.613 11.5081 63.2275 13.3929 63.3474 15.1532V21.5233C63.4502 23.8171 65.0563 23.8571 66.0414 23.8571Z" fill="#171717"/>
<path d="M16.4414 11.2588C13.9992 11.3771 13.5324 11.6881 13.4459 13.081L13.4416 23.7597C13.5453 29.0422 9.79337 30.4 6.61632 30.4C3.68565 30.3387 1.67568 29.0465 0.595052 26.3265C0.175768 24.04 0.508601 21.5784 2.93353 21.101C5.44492 20.5622 7.27767 25.2139 4.43345 26.5455C4.57177 27.7194 7.46786 28.2537 7.55863 25.7527V12.7086C7.55863 10.523 5.49679 11.0968 4.29513 11.0398V8H16.4414" fill="#171717"/>
<path d="M24.348 8C12.2086 8.12003 11.3245 27.0189 23.8312 27.1834C37.6449 27.8547 37.0683 8 24.348 8ZM25.1382 24.1069C19.4572 24.2314 19.3633 11.6989 24.8307 11.5166C29.9734 11.6989 29.5506 23.9469 25.1382 24.1069Z" fill="#171717"/>
<path d="M74.4919 18.9892C73.0763 19.5626 71.7486 20.4473 72.0753 21.9721C72.3056 23.2301 73.3946 23.8036 74.4877 23.6791C75.673 23.5546 76.8416 22.59 76.9002 20.7362V18.1845C76.3055 18.3712 75.3924 18.6202 74.4919 18.9892ZM74.4877 16.2508C75.0029 16.1085 75.5348 15.9618 76.0542 15.7573C77.1054 15.4061 77.3777 14.1125 76.896 12.6322C76.205 11.4186 75.4636 11.0274 74.4877 10.9873C73.7003 10.9429 72.7412 11.1296 71.5559 11.2719C73.7925 12.1387 73.3318 15.6328 70.446 16.024C67.8827 16.0863 67.4011 14.3392 67.4011 12.6322C67.6105 9.29807 70.6554 8.28895 73.4281 8H74.4836C76.762 8.02223 80.5315 8.30674 81.5618 10.6584C82.0812 12.0765 82.2906 13.9925 82.2906 15.7618V23.2346C82.4079 24.1414 83.9743 24.0792 83.9743 23.0078V19.8782H86.0015C86.0224 20.4962 86.0392 21.0741 86.0392 21.6075C86.0601 24.5549 85.6203 26.4664 82.4037 27.1243C80.297 27.351 78.6719 26.8976 77.1599 24.9194C76.1421 25.7018 75.3045 26.2975 74.4794 26.6709C73.2354 27.2444 72.0292 27.3688 70.2282 26.9598C68.2555 26.5064 67.0702 24.6749 66.8398 22.7189V21.3408C67.0116 19.8605 67.7613 18.4824 69.1769 17.74C70.89 16.8464 72.6909 16.682 74.4877 16.2508Z" fill="#171717"/>
</svg>
