<svg width="82" height="32" viewBox="0 0 82 32" fill="none" xmlns="http://www.w3.org/2000/svg">
<g clip-path="url(#clip0_2166_71)">
<path d="M8.94921 29.3221C6.59202 29.2306 4.66349 28.6002 3.15554 27.4294C2.86775 27.2058 2.18199 26.5351 1.95192 26.2523C1.34043 25.5008 0.924687 24.7695 0.64739 23.958C-0.205872 21.4602 0.233268 18.1825 1.90349 14.5853C3.33354 11.5056 5.54017 8.45113 9.38996 4.22076C9.95706 3.59828 11.6458 1.77777 11.6567 1.77777C11.6608 1.77777 11.5687 1.93359 11.4529 2.12334C10.4519 3.76199 9.59542 5.69216 9.12882 7.36317C8.37928 10.0444 8.46969 12.3454 9.3936 14.1296C10.0309 15.3588 11.1236 16.4235 12.3522 17.0121C14.5031 18.0421 17.6522 18.1273 21.498 17.2614C21.7628 17.2014 34.8831 13.7975 50.6544 9.6969C66.4258 5.59591 79.3317 2.24325 79.3338 2.24601C79.3382 2.24956 42.6925 17.575 23.6691 25.5257C20.6564 26.7845 19.8508 27.1024 18.4345 27.5884C14.8139 28.831 11.5708 29.4239 8.94921 29.3221Z" fill="#98949E"/>
</g>
<defs>
<clipPath id="clip0_2166_71">
<rect width="81.7778" height="32" fill="white" transform="translate(0.222656)"/>
</clipPath>
</defs>
</svg>
