<svg width="66" height="32" viewBox="0 0 66 32" fill="none" xmlns="http://www.w3.org/2000/svg">
<g clip-path="url(#clip0_2166_12)">
<path d="M35.7811 0.109229C35.569 0.140173 35.3653 0.915286 34.9554 1.31944C34.6559 1.61032 34.2817 1.59288 34.0831 1.95296C34.0077 2.08686 34.0318 2.31698 33.9466 2.53678C33.7788 2.97825 33.1903 3.01745 33.1903 3.49793C33.1884 4.01686 33.6807 4.1157 34.1082 4.48459C34.4417 4.78053 34.4739 4.98477 34.8773 5.12899C35.2224 5.2447 35.7353 4.86493 36.197 5.00165C36.5755 5.11323 36.9384 5.19388 37.0244 5.58022C37.0998 5.93692 37.0189 6.48848 36.5591 6.42472C36.4043 6.40709 35.7319 6.18316 34.9074 6.27037C33.9109 6.3829 32.7747 6.70509 32.6636 7.80747C32.6022 8.42261 33.3702 9.14896 34.1116 9.00136C34.6237 8.90197 34.3816 8.30164 34.6598 8.01058C35.0261 7.63681 37.0998 9.31343 39.0264 9.31343C39.8379 9.31343 40.4415 9.10976 41.0408 8.48693C41.0967 8.43911 41.1651 8.33746 41.2515 8.33071C41.3335 8.33746 41.476 8.41717 41.5233 8.45111C43.0746 9.68908 44.2486 12.1731 49.9534 12.2016C50.756 12.2061 51.6693 12.5866 52.4162 13.262C53.0816 13.8724 53.4703 14.8234 53.849 15.787C54.4203 17.2333 55.4429 18.6403 56.9944 20.2061C57.0789 20.2899 58.3564 21.2753 58.4589 21.3488C58.4743 21.36 58.5685 21.5819 58.5358 21.7057C58.4982 22.6453 58.3602 25.3748 60.4112 25.4987C60.9124 25.5238 60.7816 25.1743 60.7816 24.9335C60.7803 24.458 60.6928 23.9852 60.9453 23.4982C61.2904 22.8289 60.2128 22.5209 60.2442 21.0731C60.2665 19.9936 59.3526 20.1778 58.8895 19.3552C58.6223 18.8788 58.3848 18.6266 58.402 18.0437C58.5065 14.7647 57.6986 12.6097 57.2962 12.0804C56.982 11.6812 56.7219 11.5227 57.009 11.3381C58.721 10.2153 59.1088 9.17221 59.1088 9.17221C60.0191 7.04905 60.8374 5.10986 61.9662 4.25598C62.1933 4.07931 62.7765 3.6474 63.1341 3.47824C64.1875 2.98557 64.7416 2.68644 65.0479 2.39124C65.5315 1.9237 65.9146 0.947169 65.4502 0.35566C64.8729 -0.374817 63.8755 0.204688 63.4357 0.463871C60.289 2.31698 59.8254 5.58603 58.7351 7.46333C57.8655 8.96329 56.4519 10.0651 55.1876 10.1551C54.2408 10.2249 53.2184 10.0345 52.2017 9.59137C49.7279 8.51525 48.375 7.12575 48.0545 6.88007C47.3902 6.37108 42.2314 1.34457 38.0507 1.1394C38.0507 1.1394 37.5318 0.107916 37.4012 0.0917869C37.0958 0.052403 36.7827 0.706927 36.5583 0.783444C36.3486 0.852272 35.994 0.074721 35.7811 0.109229Z" fill="#98949E"/>
<path d="M17.6588 30.1363C17.2672 30.1272 16.9346 29.8077 16.9346 29.4125L16.9363 16.5H12.6602V30.7329C12.6602 31.4311 13.2281 32 13.9249 32H21.3975C22.0989 32 22.6602 31.4313 22.6602 30.7329V16.5H18.3883L18.3849 29.4125C18.3851 29.8077 18.0523 30.1272 17.6588 30.1363Z" fill="#98949E"/>
<path d="M31.9091 16.5H25.5308C24.7749 16.5 24.1602 17.12 24.1602 17.8901V32H28.3795V19.0569C28.3821 18.6607 28.6999 18.3461 29.0925 18.3461C29.4858 18.3461 29.8022 18.6532 29.8109 19.046V32H34.0118V19.046C34.0172 18.6528 34.333 18.3461 34.7263 18.3461C35.1156 18.3461 35.4379 18.6607 35.4407 19.0569V32H39.6602V17.8901C39.6602 17.1204 39.0433 16.5 38.289 16.5H31.9091Z" fill="#98949E"/>
<path d="M9.75787 28.1052H5.43606V32H1.16016V16.5H9.78496C10.557 16.5 11.1602 17.1241 11.1602 17.896V26.7078C11.16 27.482 10.5333 28.1052 9.75787 28.1052ZM6.88707 19.084C6.89046 18.6532 6.53754 18.3466 6.1626 18.3466H5.43606V26.1863H6.16241C6.53979 26.1863 6.89008 25.8878 6.8867 25.4581V19.084" fill="#98949E"/>
<path d="M46.8865 32V28.1084H45.433V32H41.1602V17.8901C41.1602 17.1204 41.7837 16.5 42.551 16.5H49.7689C50.5374 16.5 51.1602 17.12 51.1602 17.8901V32H46.8865ZM46.8865 26.1888V19.0515C46.876 18.6572 46.5572 18.3536 46.1581 18.3536C45.7629 18.3536 45.4374 18.6693 45.4332 19.0627V26.1882L46.8865 26.1888Z" fill="#98949E"/>
</g>
<defs>
<clipPath id="clip0_2166_12">
<rect width="65.7778" height="32" fill="white" transform="translate(0.109375)"/>
</clipPath>
</defs>
</svg>
