<svg width="65" height="32" viewBox="0 0 65 32" fill="none" xmlns="http://www.w3.org/2000/svg">
<path d="M1.14948 0.21582C3.31798 0.216654 5.48648 0.21582 7.65497 0.216654C8.76841 0.225829 9.89186 0.625333 10.7067 1.39432C11.3831 2.02151 11.8135 2.92978 11.7843 3.86057C11.811 4.70461 11.5458 5.56701 11.0003 6.21839C10.5658 6.75301 9.95692 7.11915 9.31304 7.34601C9.98611 7.53784 10.6342 7.90982 11.032 8.50032C11.3456 8.94403 11.464 9.49366 11.469 10.0299C11.4699 11.0191 11.4707 12.0083 11.4682 12.9974C10.5516 12.9958 9.63498 12.9974 8.71837 12.9966C8.7167 12.2026 8.72004 11.4086 8.71754 10.6146C8.69836 10.0475 8.56908 9.44278 8.15873 9.02576C7.7242 8.59123 7.08449 8.46028 6.49233 8.43359C5.8718 8.42609 5.25211 8.43276 4.63159 8.43109C4.63409 7.69297 4.62492 6.95568 4.63659 6.21756C5.53068 6.2259 6.42477 6.21839 7.31886 6.22173C7.94355 6.22089 8.54656 5.83473 8.81178 5.26842C9.17459 4.52279 9.06533 3.49943 8.40728 2.94896C8.03446 2.6437 7.54155 2.52694 7.06781 2.52944C5.96271 2.53194 4.85845 2.52861 3.75418 2.53111C3.75501 5.25508 3.75418 7.97904 3.75418 10.7038C2.88595 10.7038 2.01688 10.7038 1.14865 10.7038C1.14865 7.20756 1.14781 3.71211 1.14948 0.21582Z" fill="#98949E"/>
<path d="M34.0948 0.21582C34.9906 0.216654 35.8863 0.216654 36.7829 0.21582C36.7829 2.96814 36.7837 5.72047 36.7829 8.47279C37.471 8.47363 38.1591 8.47279 38.848 8.47363C39.7279 8.48614 40.5202 7.73384 40.6045 6.86727C40.7496 5.954 40.1216 4.95732 39.1908 4.79385C38.6979 4.72379 38.1974 4.77717 37.702 4.76133C37.7012 4.01736 37.702 3.27424 37.7012 2.53111C38.2783 2.52861 38.8555 2.53194 39.4326 2.52944C40.6428 2.50442 41.8255 3.13745 42.5344 4.10911C43.2467 5.07326 43.4844 6.3485 43.2517 7.51615C42.9231 8.97488 41.6729 10.0842 40.2742 10.5078C39.5711 10.7372 38.823 10.728 38.0923 10.7239C36.7595 10.7239 35.4268 10.7239 34.094 10.7239C34.094 7.2209 34.0931 3.71878 34.0948 0.21582Z" fill="#98949E"/>
<path d="M55.2148 0.216629C56.1181 0.215795 57.0214 0.215795 57.9255 0.216629C57.9255 1.88387 57.9246 3.55195 57.9255 5.22002C58.4909 5.2 59.0648 5.27006 59.6252 5.16664C60.1507 5.05822 60.576 4.65371 60.7579 4.15579C60.9747 3.63452 60.9589 3.05903 60.9772 2.50606C61.8646 2.51524 62.752 2.5069 63.6403 2.51023C63.6178 3.3743 63.6253 4.29674 63.1741 5.06656C62.7879 5.73879 62.059 6.11077 61.3467 6.34013C62.1899 6.577 63.0106 7.08576 63.3876 7.90562C63.8263 8.77469 63.6753 9.76803 63.7012 10.7038C62.8046 10.7038 61.908 10.7038 61.0122 10.7038C60.9605 9.929 61.1715 9.08161 60.7545 8.37602C60.4326 7.79303 59.7595 7.49944 59.1181 7.45774C58.7211 7.44106 58.3225 7.45608 57.9255 7.45107C57.9246 8.53532 57.9246 9.61957 57.9255 10.703C57.0214 10.7038 56.1181 10.7038 55.2148 10.703C55.2157 7.20753 55.2148 3.71208 55.2148 0.216629Z" fill="#98949E"/>
<path d="M47.9857 2.50279C49.3143 2.26925 50.7463 2.38602 51.9507 3.02739C52.8698 3.51614 53.5887 4.3702 53.884 5.37104C54.2476 6.60792 54.1 8.02662 53.3477 9.09335C52.7138 10.01 51.6913 10.6038 50.6162 10.8448C49.3627 11.1226 48.0082 11.035 46.838 10.4854C45.7154 9.96409 44.7996 8.9599 44.4935 7.74805C44.1791 6.49949 44.4151 5.08997 45.225 4.07244C45.9031 3.22089 46.9256 2.69545 47.9857 2.50279ZM48.6479 4.58204C47.6804 4.82391 46.9615 5.79723 47.0307 6.79474C47.0699 7.50534 47.4786 8.18759 48.0941 8.54789C48.7046 8.92904 49.5044 8.96407 50.15 8.64714C51.1433 8.18842 51.6629 6.92819 51.2459 5.90899C50.8806 4.89064 49.6879 4.27595 48.6479 4.58204Z" fill="#98949E"/>
<path d="M13.3213 4.43521C14.0269 3.29925 15.3171 2.55445 16.6566 2.53277C18.3964 2.52693 20.1353 2.53193 21.8743 2.53027C21.8618 3.32844 21.9002 4.13245 21.856 4.92562C21.2897 5.82638 20.71 6.71964 20.1395 7.6179C19.2755 7.61539 18.4122 7.62207 17.549 7.61456C18.1203 6.66459 18.6941 5.71546 19.2579 4.76132C18.5607 4.75965 17.8634 4.76299 17.1653 4.75965C16.5348 4.7388 15.9235 5.10411 15.5982 5.63706C15.2079 6.25591 15.2312 7.10913 15.6649 7.7013C16.0144 8.21006 16.6291 8.50531 17.2421 8.49447C18.7859 8.49447 20.3305 8.49364 21.8743 8.49447C21.8743 9.2376 21.8751 9.98073 21.8743 10.7239C20.3872 10.7247 18.9001 10.7239 17.413 10.7247C16.8025 10.7255 16.1778 10.7314 15.589 10.5462C14.4239 10.2059 13.4447 9.30349 12.996 8.17754C12.5022 6.97319 12.6207 5.5353 13.3213 4.43521Z" fill="#98949E"/>
<path d="M24.7944 3.32178C25.475 2.80968 26.3223 2.53945 27.1714 2.53028C28.8812 2.52944 30.591 2.53028 32.2999 2.53028C32.3016 3.32762 32.2974 4.12496 32.3024 4.9223C31.7277 5.82056 31.1548 6.72048 30.5784 7.61791C29.716 7.61707 28.8545 7.61791 27.9921 7.61791C28.5551 6.6621 29.1331 5.71547 29.7002 4.76133C28.9387 4.763 28.1772 4.75549 27.4158 4.76383C26.4041 4.84557 25.6076 5.88061 25.7761 6.87978C25.887 7.74468 26.666 8.46612 27.5417 8.48948C29.1347 8.50032 30.7277 8.49198 32.3199 8.49365C32.3224 9.23678 32.3199 9.9799 32.3216 10.7239C30.6085 10.7197 28.8954 10.7339 27.1822 10.7172C26.128 10.7164 25.0771 10.2885 24.3398 9.53202C23.4624 8.68047 23.0229 7.41273 23.1563 6.20088C23.2639 5.06742 23.8744 3.99235 24.7944 3.32178Z" fill="#98949E"/>
<path d="M46.1001 16.2936C51.9634 15.6455 57.8467 15.1835 63.7325 14.8057C60.5498 15.6163 57.3562 16.397 54.2036 17.3253C49.7765 18.5889 45.4595 20.2002 41.1959 21.9267C38.9649 20.6097 36.7255 19.3078 34.4961 17.9884C38.3335 17.236 42.216 16.7365 46.1001 16.2936Z" fill="#98949E"/>
<path d="M3.69922 15.1651C11.0362 15.1743 18.3741 15.1543 25.7095 15.1751C27.3125 15.9816 28.858 16.9016 30.4218 17.7815C36.4802 21.2619 42.5062 24.7999 48.5021 28.3863C49.9433 29.2503 51.3853 30.1119 52.8115 31.001C53.1243 31.2061 53.4546 31.3871 53.7448 31.6248C47.266 28.9025 40.8448 26.0359 34.2759 23.5355C28.6753 21.392 22.9571 19.5555 17.1447 18.0809C13.9362 17.2577 10.701 16.5421 7.45239 15.8949C6.20467 15.6372 4.94277 15.4387 3.69922 15.1651Z" fill="#98949E"/>
<path d="M11.7502 25.8934C14.7978 23.895 18.1631 22.4313 21.5877 21.2144C23.6286 21.7649 25.6344 22.4446 27.6453 23.096C24.9714 24.1561 22.4017 25.5039 20.0872 27.2187C18.6076 28.3313 17.1823 29.5531 16.0563 31.0319C12.7352 31.0335 9.41405 31.0352 6.09375 31.031C7.67091 29.0135 9.61339 27.2979 11.7502 25.8934Z" fill="#98949E"/>
<path d="M21.8914 28.7849C24.1859 26.699 26.8581 25.0534 29.6847 23.7932C31.281 24.3512 32.8657 24.9442 34.4437 25.553C33.0784 26.5247 31.7189 27.528 30.5838 28.7699C29.9299 29.4705 29.3519 30.2378 28.8173 31.0318C25.8131 31.0352 22.8089 31.031 19.8047 31.0343C20.4102 30.2061 21.1416 29.4805 21.8914 28.7849Z" fill="#98949E"/>
</svg>
