<svg width="64" height="64" viewBox="0 0 64 64" fill="none" xmlns="http://www.w3.org/2000/svg">
<path d="M10.7615 25.9775C10.7033 25.9775 10.6427 25.9729 10.5833 25.9637C9.96039 25.8666 9.53297 25.2826 9.63125 24.6586C11.629 11.8552 20.4095 3.58203 31.9993 3.58203C43.565 3.58203 52.3421 11.8369 54.3604 24.6117C54.4598 25.2357 54.0335 25.8209 53.4107 25.9192C52.7867 26.0163 52.2004 25.5923 52.1033 24.9683C50.2404 13.1866 42.5375 5.86775 31.9993 5.86775C21.4381 5.86775 13.7318 13.2026 11.8884 25.0106C11.8015 25.574 11.3147 25.9775 10.7615 25.9775Z" fill="black"/>
<path d="M42.2708 19.7705C41.6914 19.7705 41.1954 19.3327 41.1348 18.7442C40.4194 11.7716 36.9748 6.49846 32.7565 5.91903C32.1314 5.83332 31.6937 5.25617 31.7805 4.63103C31.8662 4.00589 32.4365 3.57046 33.0685 3.65503C38.4171 4.38989 42.5725 10.3602 43.4091 18.5122C43.4731 19.1396 43.016 19.7019 42.3885 19.7659C42.3497 19.7693 42.3097 19.7705 42.2708 19.7705Z" fill="black"/>
<path d="M21.7081 25.4153C21.1287 25.4153 20.6327 24.9764 20.5721 24.3879C20.0292 19.0404 20.8955 13.9284 23.0098 9.99016C23.3069 9.43359 23.9995 9.2233 24.5572 9.52387C25.1127 9.82216 25.3218 10.5147 25.0235 11.0713C23.1229 14.6119 22.3504 19.2587 22.8475 24.157C22.9115 24.7844 22.4532 25.3456 21.8258 25.4096C21.7847 25.413 21.7458 25.4153 21.7081 25.4153Z" fill="black"/>
<path d="M30.8555 4.72266H33.1412V23.6895H30.8555V4.72266Z" fill="black"/>
<path d="M11.5898 24.0664L25.8686 39.3055L24.2001 40.8689L9.92127 25.6298L11.5898 24.0664Z" fill="black"/>
<path d="M21.0224 25.6974C16.0121 21.3454 11.7469 25.4642 11.5686 25.6425L9.94922 24.0288C11.9732 21.9911 17.2041 19.3568 22.5206 23.9705L21.0224 25.6974Z" fill="black"/>
<path d="M22.8086 24.3438L29.1981 37.5331L27.141 38.5297L20.7515 25.3403L22.8086 24.3438Z" fill="black"/>
<path d="M52.4102 24.0273L54.081 25.5885L39.8012 40.8718L38.1304 39.3107L52.4102 24.0273Z" fill="black"/>
<path d="M41.2266 24.3242L43.2677 25.3551L36.6609 38.4368L34.6198 37.4059L41.2266 24.3242Z" fill="black"/>
<path d="M31.2454 25.6971C29.5917 24.2606 27.9528 23.5909 26.3574 23.7086C24.1231 23.8731 22.6557 25.5566 22.6408 25.5737L20.8945 24.0994C20.9768 24.0011 22.9574 21.6834 26.1528 21.432C28.3848 21.2594 30.6008 22.1097 32.7448 23.9714L31.2454 25.6971Z" fill="black"/>
<path d="M42.9748 25.7007L41.4766 23.9738C46.7886 19.3624 52.024 21.9932 54.048 24.0321L52.4286 25.6458C52.2503 25.4698 47.984 21.3521 42.9748 25.7007Z" fill="black"/>
<path d="M30.8555 24.8359H33.1412V37.7136H30.8555V24.8359Z" fill="black"/>
<path d="M32.7522 25.6951L31.2539 23.9682C33.3968 22.1077 35.6208 21.2528 37.8459 21.4288C41.0413 21.6814 43.0196 23.9979 43.103 24.0962L41.3568 25.5705C41.3419 25.5534 39.8745 23.8699 37.6413 23.7054C36.0436 23.5877 34.4059 24.2585 32.7522 25.6951Z" fill="black"/>
<path d="M32.3186 55.5086C29.1323 55.5086 27.4889 53.4777 26.9254 52.5943C26.586 52.0617 26.7426 51.3554 27.2752 51.016C27.8077 50.6766 28.514 50.8331 28.8534 51.3646C29.4066 52.232 30.4706 53.2983 32.4157 53.2217C34.7369 53.1783 34.9552 51.6606 34.9654 51.1966C34.9586 51.0468 34.8134 49.5097 31.8409 49.4674C28.658 49.4228 27.5232 47.8308 27.13 46.8868C26.626 45.6777 26.8454 44.2731 27.7037 43.2217C28.362 42.4137 29.6614 41.4914 31.8672 41.4766C34.9117 41.504 36.1712 43.408 36.5723 44.2251C36.85 44.792 36.6169 45.4766 36.05 45.7543C35.4809 46.0354 34.7963 45.7977 34.5209 45.232C34.1963 44.5691 33.4683 43.7771 31.8466 43.7623C30.7814 43.776 29.9723 44.0571 29.4752 44.6663C29.1506 45.0651 29.0603 45.5783 29.2386 46.008C29.5552 46.7668 30.4409 47.1623 31.8729 47.1817C36.162 47.2434 37.2672 49.8514 37.2512 51.2206C37.2534 52.3783 36.3952 55.4331 32.458 55.5074C32.4112 55.5086 32.3643 55.5086 32.3186 55.5086Z" fill="black"/>
<path d="M31.8304 43.4973C31.1995 43.4973 30.6875 42.9865 30.6875 42.3545V41.3499C30.6875 40.7179 31.1995 40.207 31.8304 40.207C32.4612 40.207 32.9732 40.7179 32.9732 41.3499V42.3545C32.9732 42.9853 32.4624 43.4973 31.8304 43.4973Z" fill="black"/>
<path d="M31.8304 56.78C31.1995 56.78 30.6875 56.2692 30.6875 55.6372V54.6897C30.6875 54.0577 31.1995 53.5469 31.8304 53.5469C32.4612 53.5469 32.9732 54.0577 32.9732 54.6897V55.6372C32.9732 56.268 32.4624 56.78 31.8304 56.78Z" fill="black"/>
<path d="M31.9949 60.4172C25.42 60.4172 20.0703 55.0675 20.0703 48.4926C20.0703 41.9177 25.42 36.5703 31.9949 36.5703C38.5697 36.5703 43.9194 41.9189 43.9194 48.4937C43.9194 55.0686 38.5697 60.4172 31.9949 60.4172ZM31.9949 38.856C26.6806 38.856 22.356 43.1795 22.356 48.4937C22.356 53.808 26.6795 58.1326 31.9949 58.1326C37.3103 58.1326 41.6337 53.8092 41.6337 48.4937C41.6337 43.1795 37.3092 38.856 31.9949 38.856Z" fill="black"/>
</svg>
