<svg width="64" height="64" viewBox="0 0 64 64" fill="none" xmlns="http://www.w3.org/2000/svg">
<path d="M27.9948 40H30.6615C31.3684 39.999 32.0461 39.7178 32.546 39.2179C33.0459 38.718 33.3272 38.0403 33.3281 37.3333V34.6667C33.3273 33.9597 33.0461 33.2819 32.5462 32.7819C32.0463 32.282 31.3685 32.0008 30.6615 32H27.9948C27.2878 32.0008 26.61 32.282 26.1101 32.7819C25.6101 33.2819 25.3289 33.9597 25.3281 34.6667V37.3333C25.3291 38.0403 25.6103 38.718 26.1102 39.2179C26.6101 39.7178 27.2878 39.999 27.9948 40ZM27.9948 34.6667H30.6615L30.6641 37.3333H27.9948V34.6667Z" fill="#171717"/>
<path d="M9.33333 36.0026H14.6667C15.0203 36.0026 15.3594 35.8621 15.6095 35.6121C15.8595 35.362 16 35.0229 16 34.6693C16 34.3156 15.8595 33.9765 15.6095 33.7265C15.3594 33.4764 15.0203 33.3359 14.6667 33.3359H9.33333C8.97971 33.3359 8.64057 33.4764 8.39052 33.7265C8.14048 33.9765 8 34.3156 8 34.6693C8 35.0229 8.14048 35.362 8.39052 35.6121C8.64057 35.8621 8.97971 36.0026 9.33333 36.0026Z" fill="#171717"/>
<path d="M61.1406 32.6498L53.1406 19.3165C53.0222 19.119 52.8547 18.9556 52.6543 18.8421C52.454 18.7287 52.2276 18.6691 51.9974 18.6693H39.9974V12.0026C39.9966 11.2956 39.7154 10.6178 39.2154 10.1179C38.7155 9.61796 38.0377 9.33675 37.3307 9.33594H5.33073C4.62373 9.33675 3.94593 9.61796 3.44601 10.1179C2.94609 10.6178 2.66487 11.2956 2.66406 12.0026V45.3359C2.66501 46.0429 2.94627 46.7206 3.44616 47.2205C3.94605 47.7204 4.62378 48.0017 5.33073 48.0026H8.11739C8.42993 49.8666 9.39312 51.5595 10.8358 52.7804C12.2786 54.0014 14.1074 54.6714 15.9974 54.6714C17.8874 54.6714 19.7162 54.0014 21.1589 52.7804C22.6017 51.5595 23.5649 49.8666 23.8774 48.0026H41.4507C41.7633 49.8666 42.7265 51.5595 44.1692 52.7804C45.6119 54.0014 47.4407 54.6714 49.3307 54.6714C51.2207 54.6714 53.0496 54.0014 54.4923 52.7804C55.935 51.5595 56.8982 49.8666 57.2107 48.0026H59.9974C60.351 48.0026 60.6901 47.8621 60.9402 47.6121C61.1902 47.362 61.3307 47.0229 61.3307 46.6693V33.3359C61.331 33.0942 61.2652 32.8569 61.1406 32.6498ZM51.2422 21.3359L56.8422 30.6693H43.3307L39.9974 26.225V21.3359H51.2422ZM17.3307 12.0041L25.3307 12.005V20.5117L21.9271 18.8099C21.7419 18.7174 21.5377 18.6693 21.3307 18.6693C21.1237 18.6693 20.9195 18.7174 20.7343 18.8099L17.3307 20.5117V12.0041ZM5.33073 12.0026L14.6641 12.0038V22.6693C14.664 22.8966 14.7221 23.1201 14.8328 23.3186C14.9435 23.5172 15.1031 23.6841 15.2964 23.8036C15.4898 23.9231 15.7105 23.9912 15.9375 24.0014C16.1646 24.0116 16.3905 23.9636 16.5938 23.8619L21.3307 21.4935L26.0677 23.8619C26.271 23.9636 26.4969 24.0116 26.7239 24.0014C26.951 23.9912 27.1717 23.9231 27.365 23.8036C27.5584 23.6841 27.718 23.5172 27.8287 23.3186C27.9393 23.1201 27.9974 22.8966 27.9974 22.6693V12.0054L37.3307 12.0065V45.3359H23.8867C23.8815 45.3051 23.8689 45.2773 23.8633 45.2466C23.7906 44.8451 23.687 44.4498 23.5533 44.0643C23.529 43.9942 23.5033 43.9257 23.477 43.8563C23.3354 43.4771 23.1651 43.1093 22.9677 42.7559C22.939 42.7049 22.9066 42.6569 22.8769 42.6065C22.6648 42.2437 22.4247 41.898 22.1587 41.5727L22.1358 41.5474C21.8657 41.2272 21.5711 40.9285 21.2546 40.6541C21.2191 40.623 21.1865 40.5898 21.1506 40.5594C20.8388 40.2984 20.5076 40.0614 20.1599 39.8505C20.1013 39.8145 20.0441 39.7782 19.9845 39.7438C19.6358 39.5425 19.2724 39.368 18.8974 39.2217C18.8307 39.1958 18.7649 39.1726 18.6974 39.1486C18.3073 39.0061 17.9065 38.8946 17.4989 38.8153C17.4455 38.8053 17.3922 38.7999 17.3389 38.7909C16.451 38.6284 15.5411 38.6284 14.6533 38.7909C14.5999 38.7999 14.5466 38.8053 14.4933 38.8153C14.0855 38.8946 13.6847 39.0061 13.2945 39.1486C13.2278 39.1726 13.1611 39.1958 13.0958 39.2215C12.7206 39.3679 12.3571 39.5424 12.0083 39.7438C11.9487 39.7783 11.8915 39.8146 11.8329 39.8505C11.4852 40.0614 11.154 40.2984 10.8422 40.5594C10.8063 40.5898 10.7737 40.623 10.7382 40.6541C10.4217 40.9285 10.1271 41.2272 9.857 41.5474L9.83406 41.5727C9.56779 41.8983 9.3275 42.2442 9.1154 42.6074C9.0858 42.6573 9.05393 42.7049 9.02539 42.7554C8.82832 43.1088 8.65849 43.4767 8.51739 43.8559C8.49073 43.9251 8.46553 43.9937 8.44126 44.0638C8.30757 44.4493 8.20393 44.8446 8.13126 45.2461C8.12566 45.2767 8.11299 45.3046 8.1078 45.3354H5.33073V12.0026ZM15.9974 52.0026C14.9426 52.0026 13.9114 51.6898 13.0344 51.1038C12.1573 50.5177 11.4737 49.6848 11.07 48.7103C10.6664 47.7357 10.5608 46.6634 10.7665 45.6288C10.9723 44.5942 11.4803 43.6439 12.2262 42.898C12.972 42.1522 13.9223 41.6442 14.9569 41.4384C15.9915 41.2326 17.0638 41.3382 18.0384 41.7419C19.0129 42.1456 19.8459 42.8292 20.4319 43.7062C21.0179 44.5833 21.3307 45.6144 21.3307 46.6693C21.3293 48.0833 20.767 49.4391 19.7671 50.439C18.7672 51.4389 17.4115 52.0012 15.9974 52.0026ZM49.3307 52.0026C48.2759 52.0026 47.2447 51.6898 46.3677 51.1038C45.4906 50.5177 44.807 49.6848 44.4034 48.7103C43.9997 47.7357 43.8941 46.6634 44.0999 45.6288C44.3057 44.5942 44.8136 43.6439 45.5595 42.898C46.3054 42.1522 47.2557 41.6442 48.2902 41.4384C49.3248 41.2326 50.3972 41.3382 51.3717 41.7419C52.3462 42.1456 53.1792 42.8292 53.7652 43.7062C54.3513 44.5833 54.6641 45.6144 54.6641 46.6693C54.6627 48.0833 54.1003 49.4391 53.1004 50.439C52.1005 51.4389 50.7448 52.0012 49.3307 52.0026ZM58.6641 45.3359H57.2201C57.2149 45.3051 57.2022 45.2773 57.1966 45.2466C57.1239 44.8451 57.0203 44.4498 56.8866 44.0643C56.8623 43.9942 56.8366 43.9257 56.8103 43.8563C56.6687 43.4771 56.4985 43.1093 56.301 42.7559C56.2723 42.7049 56.2399 42.6569 56.2102 42.6065C55.9982 42.2437 55.7581 41.898 55.4921 41.5727L55.4691 41.5474C55.1991 41.2272 54.9044 40.9285 54.5879 40.6541C54.5525 40.623 54.5198 40.5898 54.4839 40.5594C54.1721 40.2984 53.8409 40.0614 53.4933 39.8505C53.4346 39.8145 53.3774 39.7782 53.3178 39.7438C52.9692 39.5425 52.6058 39.368 52.2307 39.2217C52.1647 39.1958 52.0982 39.1726 52.0314 39.1486C51.6413 39.0061 51.2405 38.8946 50.8329 38.8153C50.7795 38.8053 50.7262 38.7999 50.6729 38.7909C49.785 38.6284 48.8751 38.6284 47.9873 38.7909C47.9339 38.7999 47.8806 38.8053 47.8273 38.8153C47.4195 38.8946 47.0187 39.0061 46.6285 39.1486C46.5618 39.1726 46.4951 39.1958 46.4298 39.2215C46.0546 39.3679 45.6911 39.5424 45.3423 39.7438C45.2827 39.7783 45.2255 39.8146 45.1669 39.8505C44.8192 40.0614 44.488 40.2984 44.1762 40.5594C44.1403 40.5898 44.1077 40.623 44.0722 40.6541C43.7557 40.9285 43.4611 41.2272 43.191 41.5474L43.1681 41.5727C42.9018 41.8983 42.6615 42.2442 42.4494 42.6074C42.4198 42.6573 42.3879 42.7049 42.3594 42.7554C42.1617 43.1089 41.9913 43.477 41.8497 43.8565C41.823 43.9257 41.7978 43.9942 41.7735 44.0643C41.6398 44.4498 41.5362 44.8451 41.4635 45.2466C41.4579 45.2773 41.4453 45.3051 41.4401 45.3359H39.9974V30.6693L41.5974 32.8026C41.7215 32.9683 41.8825 33.1028 42.0677 33.1953C42.2528 33.2879 42.457 33.3361 42.6641 33.3359H58.4422L58.6641 33.7057V45.3359Z" fill="#171717"/>
</svg>
