<svg width="20" height="20" viewBox="0 0 20 20" fill="none" xmlns="http://www.w3.org/2000/svg">
<path d="M6.35547 1.66663H4.48047C2.92717 1.66663 1.66797 2.92582 1.66797 4.47913V6.35413C1.66797 7.90743 2.92717 9.16663 4.48047 9.16663H6.35547C7.90877 9.16663 9.16797 7.90743 9.16797 6.35413V4.47913C9.16797 2.92582 7.90877 1.66663 6.35547 1.66663Z" fill="#8B96B1"/>
<path d="M6.35547 10.8333H4.48047C2.92717 10.8333 1.66797 12.0925 1.66797 13.6458V15.5208C1.66797 17.0741 2.92717 18.3333 4.48047 18.3333H6.35547C7.90877 18.3333 9.16797 17.0741 9.16797 15.5208V13.6458C9.16797 12.0925 7.90877 10.8333 6.35547 10.8333Z" fill="#8B96B1"/>
<path d="M15.5234 1.66663H13.6484C12.0951 1.66663 10.8359 2.92582 10.8359 4.47913V6.35413C10.8359 7.90743 12.0951 9.16663 13.6484 9.16663H15.5234C17.0767 9.16663 18.3359 7.90743 18.3359 6.35413V4.47913C18.3359 2.92582 17.0767 1.66663 15.5234 1.66663Z" fill="#8B96B1"/>
<path d="M15.5234 10.8333H13.6484C12.0951 10.8333 10.8359 12.0925 10.8359 13.6458V15.5208C10.8359 17.0741 12.0951 18.3333 13.6484 18.3333H15.5234C17.0767 18.3333 18.3359 17.0741 18.3359 15.5208V13.6458C18.3359 12.0925 17.0767 10.8333 15.5234 10.8333Z" fill="#8B96B1"/>
</svg>
