<svg width="39" height="39" viewBox="0 0 39 39" fill="none" xmlns="http://www.w3.org/2000/svg">
<path d="M18.1653 3.33008C8.51018 3.33008 0.664062 11.1762 0.664063 20.8313C0.664063 30.4864 8.51018 38.3325 18.1653 38.3325C27.8204 38.3325 35.6665 30.4864 35.6665 20.8313C35.6665 18.4932 35.198 16.1817 34.2886 14.0277L32.7507 14.6736C33.5735 16.6225 33.9994 18.7158 33.9994 20.8313C33.9994 29.5857 26.9197 36.6655 18.1653 36.6655C9.41091 36.6655 2.33114 29.5857 2.33114 20.8313C2.33114 12.0769 9.41091 4.99715 18.1653 4.99715C20.2812 4.99715 22.3738 5.42281 24.323 6.24592L24.9751 4.70803C22.8207 3.79828 20.5039 3.33008 18.1653 3.33008Z" fill="#171717"/>
<path d="M18.1523 11.6525C18.0428 11.6545 17.9348 11.678 17.8344 11.7218C17.7341 11.7655 17.6433 11.8286 17.5673 11.9074C17.4913 11.9863 17.4316 12.0793 17.3916 12.1812C17.3516 12.2831 17.3321 12.3919 17.3341 12.5014V20.7753C17.3343 20.994 17.4205 21.2039 17.574 21.3597L21.7387 25.5858C21.8158 25.6638 21.9075 25.7259 22.0087 25.7684C22.1098 25.811 22.2183 25.8332 22.328 25.8338C22.4377 25.8344 22.5465 25.8134 22.6481 25.7719C22.7497 25.7305 22.8421 25.6694 22.9201 25.5923C22.9981 25.5151 23.0601 25.4233 23.1026 25.3222C23.1451 25.221 23.1672 25.1125 23.1678 25.0028C23.1683 24.8931 23.1472 24.7843 23.1057 24.6828C23.0642 24.5812 23.0031 24.4888 22.9259 24.4109L19.0012 20.4369V12.4953C19.0025 12.3837 18.9813 12.273 18.9391 12.1698C18.8968 12.0666 18.8342 11.9729 18.755 11.8943C18.6758 11.8157 18.5817 11.7538 18.4782 11.7123C18.3746 11.6707 18.2638 11.6504 18.1523 11.6525Z" fill="#171717"/>
<path d="M18.0853 5.83299C17.8643 5.84366 17.6565 5.94168 17.5078 6.10549C17.359 6.26929 17.2814 6.48548 17.292 6.70651C17.3026 6.92753 17.4005 7.1353 17.5643 7.28411C17.7281 7.43293 17.9442 7.51061 18.1653 7.50007C18.2747 7.5001 18.3831 7.47856 18.4843 7.43669C18.5855 7.39481 18.6774 7.33342 18.7548 7.25601C18.8322 7.17861 18.8936 7.08671 18.9355 6.98557C18.9774 6.88442 18.999 6.77601 18.999 6.66653C18.999 6.55705 18.9774 6.44864 18.9355 6.3475C18.8936 6.24635 18.8322 6.15445 18.7548 6.07705C18.6774 5.99964 18.5855 5.93825 18.4843 5.89637C18.3831 5.8545 18.2747 5.83296 18.1653 5.83299C18.1386 5.83171 18.1119 5.83171 18.0853 5.83299Z" fill="#171717"/>
<path d="M18.0854 34.167C17.8644 34.1776 17.6566 34.2756 17.5078 34.4394C17.359 34.6032 17.2814 34.8194 17.292 35.0405C17.3026 35.2615 17.4006 35.4693 17.5644 35.6181C17.7281 35.767 17.9443 35.8446 18.1654 35.834C18.3865 35.834 18.5985 35.7462 18.7548 35.5899C18.9111 35.4336 18.9989 35.2216 18.9989 35.0005C18.9989 34.7794 18.9111 34.5674 18.7548 34.4111C18.5985 34.2548 18.3865 34.167 18.1654 34.167C18.1388 34.1657 18.1121 34.1657 18.0854 34.167Z" fill="#171717"/>
<path d="M32.2513 20.001C32.0303 20.0116 31.8226 20.1096 31.6738 20.2734C31.525 20.4373 31.4474 20.6534 31.458 20.8745C31.4686 21.0955 31.5666 21.3033 31.7303 21.4521C31.8941 21.6009 32.1103 21.6786 32.3313 21.668C32.5524 21.668 32.7644 21.5802 32.9207 21.4239C33.077 21.2676 33.1648 21.0556 33.1648 20.8345C33.1648 20.6134 33.077 20.4014 32.9207 20.2451C32.7644 20.0888 32.5524 20.001 32.3313 20.001C32.3047 19.9997 32.278 19.9997 32.2513 20.001Z" fill="#171717"/>
<path d="M3.91727 20.001C3.69625 20.0116 3.48853 20.1097 3.33977 20.2735C3.19101 20.4373 3.1134 20.6535 3.12401 20.8745C3.13461 21.0955 3.23256 21.3032 3.39631 21.4521C3.56007 21.6009 3.77622 21.6786 3.99724 21.668C4.21831 21.668 4.43032 21.5802 4.58664 21.4239C4.74296 21.2676 4.83078 21.0556 4.83078 20.8345C4.83078 20.6134 4.74296 20.4014 4.58664 20.2451C4.43032 20.0888 4.21831 20.001 3.99724 20.001C3.9706 19.9997 3.94391 19.9997 3.91727 20.001Z" fill="#171717"/>
<path d="M8.15067 30.0156C8.04115 30.0155 7.93268 30.037 7.83146 30.0789C7.73025 30.1207 7.63828 30.1821 7.5608 30.2595C7.48332 30.3369 7.42186 30.4288 7.37992 30.53C7.33799 30.6312 7.31641 30.7396 7.31641 30.8492C7.31641 30.9587 7.33799 31.0671 7.37992 31.1683C7.42186 31.2695 7.48332 31.3614 7.5608 31.4388C7.63828 31.5162 7.73025 31.5776 7.83146 31.6195C7.93268 31.6613 8.04115 31.6828 8.15067 31.6827C8.26019 31.6828 8.36866 31.6613 8.46987 31.6195C8.57108 31.5776 8.66306 31.5162 8.74054 31.4388C8.81801 31.3614 8.87948 31.2695 8.92141 31.1683C8.96335 31.0671 8.98493 30.9587 8.98493 30.8492C8.98493 30.7396 8.96335 30.6312 8.92141 30.53C8.87948 30.4288 8.81801 30.3369 8.74054 30.2595C8.66306 30.1821 8.57108 30.1207 8.46987 30.0789C8.36866 30.037 8.26019 30.0155 8.15067 30.0156Z" fill="#171717"/>
<path d="M28.1858 30.0156C28.0763 30.0155 27.9678 30.037 27.8666 30.0789C27.7654 30.1207 27.6734 30.1821 27.596 30.2595C27.5185 30.3369 27.457 30.4288 27.4151 30.53C27.3731 30.6312 27.3516 30.7396 27.3516 30.8492C27.3516 30.9587 27.3731 31.0671 27.4151 31.1683C27.457 31.2695 27.5185 31.3614 27.596 31.4388C27.6734 31.5162 27.7654 31.5776 27.8666 31.6195C27.9678 31.6613 28.0763 31.6828 28.1858 31.6827C28.2954 31.6828 28.4038 31.6613 28.505 31.6195C28.6062 31.5776 28.6982 31.5162 28.7757 31.4388C28.8532 31.3614 28.9146 31.2695 28.9566 31.1683C28.9985 31.0671 29.0201 30.9587 29.0201 30.8492C29.0201 30.7396 28.9985 30.6312 28.9566 30.53C28.9146 30.4288 28.8532 30.3369 28.7757 30.2595C28.6982 30.1821 28.6062 30.1207 28.505 30.0789C28.4038 30.037 28.2954 30.0155 28.1858 30.0156Z" fill="#171717"/>
<path d="M8.14994 9.97852C7.92888 9.97852 7.71686 10.0663 7.56054 10.2227C7.40423 10.379 7.31641 10.591 7.31641 10.8121C7.31641 11.0331 7.40423 11.2451 7.56054 11.4015C7.71686 11.5578 7.92888 11.6456 8.14994 11.6456C8.37101 11.6456 8.58303 11.5578 8.73935 11.4015C8.89566 11.2451 8.98348 11.0331 8.98348 10.8121C8.98348 10.591 8.89566 10.379 8.73935 10.2227C8.58303 10.0663 8.37101 9.97852 8.14994 9.97852Z" fill="#171717"/>
<path d="M30.6648 0.832031C26.5325 0.832032 23.166 4.19854 23.166 8.3308C23.166 12.4631 26.5325 15.8296 30.6648 15.8296C34.797 15.8296 38.1635 12.4631 38.1635 8.3308C38.1635 4.19853 34.797 0.83203 30.6648 0.832031ZM30.6648 2.49911C33.8963 2.49911 36.4965 5.09927 36.4965 8.3308C36.4965 11.5623 33.8963 14.1625 30.6648 14.1625C27.4332 14.1625 24.8331 11.5623 24.8331 8.3308C24.8331 5.09927 27.4332 2.49911 30.6648 2.49911Z" fill="#171717"/>
<path d="M27.3318 4.9961C27.2223 4.99607 27.1139 5.01761 27.0128 5.05948C26.9116 5.10136 26.8197 5.16275 26.7423 5.24016C26.6648 5.31756 26.6034 5.40946 26.5615 5.5106C26.5196 5.61175 26.498 5.72016 26.498 5.82964C26.498 5.93912 26.5196 6.04753 26.5615 6.14867C26.6034 6.24982 26.6648 6.34172 26.7423 6.41912C26.8197 6.49652 26.9116 6.55792 27.0128 6.59979C27.1139 6.64167 27.2223 6.66321 27.3318 6.66318H28.1684V7.49979H27.3318C27.1118 7.50057 26.901 7.58832 26.7454 7.74389C26.5899 7.89946 26.5021 8.11024 26.5014 8.33025V10.8339C26.5021 11.054 26.5899 11.2647 26.7454 11.4203C26.901 11.5759 27.1118 11.6636 27.3318 11.6644H28.9989C29.22 11.6644 29.432 11.5766 29.5883 11.4203C29.7446 11.264 29.8324 11.0519 29.8324 10.8309C29.8324 10.6098 29.7446 10.3978 29.5883 10.2415C29.432 10.0851 29.22 9.99733 28.9989 9.99733H28.1684V9.16687H28.9989C29.1089 9.16729 29.2179 9.14594 29.3196 9.10405C29.4212 9.06215 29.5136 9.00054 29.5914 8.92277C29.6692 8.845 29.7308 8.75261 29.7727 8.65091C29.8146 8.54922 29.8359 8.44024 29.8355 8.33025V5.83271C29.8359 5.72273 29.8146 5.61375 29.7727 5.51206C29.7308 5.41036 29.6692 5.31797 29.5914 5.2402C29.5136 5.16242 29.4212 5.10082 29.3196 5.05892C29.2179 5.01703 29.1089 4.99568 28.9989 4.9961H27.3318Z" fill="#171717"/>
<path d="M33.9882 4.98452C33.8788 4.98651 33.7707 5.01004 33.6704 5.05379C33.57 5.09753 33.4792 5.16062 33.4033 5.23946C33.3273 5.31829 33.2676 5.41133 33.2276 5.51325C33.1876 5.61517 33.168 5.72397 33.1701 5.83344V10.8347C33.17 10.9442 33.1915 11.0526 33.2334 11.1538C33.2752 11.255 33.3366 11.3469 33.414 11.4244C33.4914 11.5019 33.5833 11.5633 33.6845 11.6052C33.7857 11.6471 33.8941 11.6687 34.0036 11.6687C34.1131 11.6687 34.2215 11.6471 34.3227 11.6052C34.4239 11.5633 34.5158 11.5019 34.5932 11.4244C34.6706 11.3469 34.732 11.255 34.7738 11.1538C34.8157 11.0526 34.8372 10.9442 34.8371 10.8347V5.83344C34.8392 5.72138 34.8187 5.61005 34.7768 5.5061C34.7349 5.40215 34.6724 5.30773 34.5932 5.22848C34.5139 5.14922 34.4195 5.08677 34.3156 5.04485C34.2116 5.00294 34.1003 4.98242 33.9882 4.98452Z" fill="#171717"/>
<path d="M31.4905 4.98443C31.3805 4.98561 31.2718 5.00856 31.1707 5.05194C31.0696 5.09533 30.9781 5.15829 30.9015 5.23721C30.8249 5.31613 30.7646 5.40944 30.7242 5.51175C30.6838 5.61407 30.6641 5.72336 30.6662 5.83335V8.33089C30.6657 8.44087 30.6871 8.54985 30.729 8.65154C30.7709 8.75324 30.8325 8.84563 30.9103 8.9234C30.988 9.00118 31.0804 9.06278 31.1821 9.10468C31.2838 9.14657 31.3928 9.16792 31.5028 9.1675H34.0003C34.2214 9.1675 34.4334 9.07968 34.5897 8.92336C34.746 8.76704 34.8338 8.55503 34.8338 8.33396C34.8338 8.11289 34.746 7.90088 34.5897 7.74456C34.4334 7.58824 34.2214 7.50042 34.0003 7.50042H32.3332V5.83335C32.3353 5.72181 32.315 5.61099 32.2734 5.50746C32.2319 5.40393 32.17 5.30979 32.0914 5.23062C32.0128 5.15146 31.9191 5.08888 31.8159 5.04658C31.7127 5.00429 31.602 4.98316 31.4905 4.98443Z" fill="#171717"/>
</svg>
