<svg width="40" height="34" viewBox="0 0 40 34" fill="none" xmlns="http://www.w3.org/2000/svg">
<path d="M20.834 13.668H4.16732C3.9463 13.668 3.73434 13.7558 3.57806 13.912C3.42178 14.0683 3.33398 14.2803 3.33398 14.5013V17.8346C3.33398 18.0556 3.42178 18.2676 3.57806 18.4239C3.73434 18.5802 3.9463 18.668 4.16732 18.668H20.834C21.055 18.668 21.267 18.5802 21.4232 18.4239C21.5795 18.2676 21.6673 18.0556 21.6673 17.8346V14.5013C21.6673 14.2803 21.5795 14.0683 21.4232 13.912C21.267 13.7558 21.055 13.668 20.834 13.668ZM20.0006 17.0013H5.00065V15.3346H20.0006V17.0013Z" fill="#171717"/>
<path d="M7.50065 22H4.16732C3.9463 22 3.73434 22.0878 3.57806 22.2441C3.42178 22.4004 3.33398 22.6123 3.33398 22.8333C3.33398 23.0543 3.42178 23.2663 3.57806 23.4226C3.73434 23.5789 3.9463 23.6667 4.16732 23.6667H7.50065C7.72167 23.6667 7.93363 23.5789 8.08991 23.4226C8.24619 23.2663 8.33398 23.0543 8.33398 22.8333C8.33398 22.6123 8.24619 22.4004 8.08991 22.2441C7.93363 22.0878 7.72167 22 7.50065 22Z" fill="#171717"/>
<path d="M14.1667 22H10.8333C10.6123 22 10.4004 22.0878 10.2441 22.2441C10.0878 22.4004 10 22.6123 10 22.8333C10 23.0543 10.0878 23.2663 10.2441 23.4226C10.4004 23.5789 10.6123 23.6667 10.8333 23.6667H14.1667C14.3877 23.6667 14.5996 23.5789 14.7559 23.4226C14.9122 23.2663 15 23.0543 15 22.8333C15 22.6123 14.9122 22.4004 14.7559 22.2441C14.5996 22.0878 14.3877 22 14.1667 22Z" fill="#171717"/>
<path d="M20.8327 22H17.4993C17.2783 22 17.0664 22.0878 16.9101 22.2441C16.7538 22.4004 16.666 22.6123 16.666 22.8333C16.666 23.0543 16.7538 23.2663 16.9101 23.4226C17.0664 23.5789 17.2783 23.6667 17.4993 23.6667H20.8327C21.0537 23.6667 21.2657 23.5789 21.4219 23.4226C21.5782 23.2663 21.666 23.0543 21.666 22.8333C21.666 22.6123 21.5782 22.4004 21.4219 22.2441C21.2657 22.0878 21.0537 22 20.8327 22Z" fill="#171717"/>
<path d="M39.3917 18.6673L36.6667 17.9173V3.66732C36.6667 2.78326 36.3155 1.93542 35.6904 1.3103C35.0652 0.685174 34.2174 0.333984 33.3333 0.333984H3.33333C2.44928 0.333984 1.60143 0.685174 0.976311 1.3103C0.35119 1.93542 0 2.78326 0 3.66732L0 23.6673C0 24.5514 0.35119 25.3992 0.976311 26.0243C1.60143 26.6495 2.44928 27.0007 3.33333 27.0007H27.1083C27.5483 28.4658 28.3047 29.8164 29.3243 30.9569C30.3438 32.0974 31.6015 32.9999 33.0083 33.6007C34.275 34.1423 40 30.2673 40 23.984V19.5007C40.0069 19.3136 39.9507 19.1297 39.8403 18.9785C39.73 18.8273 39.5719 18.7177 39.3917 18.6673ZM1.66667 7.00065H35V9.50065H1.66667V7.00065ZM3.33333 2.00065H33.3333C33.7754 2.00065 34.1993 2.17625 34.5118 2.48881C34.8244 2.80137 35 3.22529 35 3.66732V5.33398H1.66667V3.66732C1.66667 3.22529 1.84226 2.80137 2.15482 2.48881C2.46738 2.17625 2.89131 2.00065 3.33333 2.00065ZM3.33333 25.334C2.89131 25.334 2.46738 25.1584 2.15482 24.8458C1.84226 24.5333 1.66667 24.1093 1.66667 23.6673V11.1673H35V17.4423C33.475 17.009 33.4167 16.9423 33.1167 17.034L27.2833 18.7007C27.1071 18.7481 26.9514 18.8521 26.84 18.9966C26.7286 19.1411 26.6677 19.3182 26.6667 19.5007C26.5879 21.4453 26.6185 23.3928 26.7583 25.334H3.33333ZM38.3333 23.984C38.3366 25.6441 37.8684 27.271 36.9832 28.6754C36.0981 30.0798 34.8324 31.2041 33.3333 31.9173C31.8343 31.2041 30.5686 30.0798 29.6834 28.6754C28.7983 27.271 28.3301 25.6441 28.3333 23.984V20.1257L33.3333 18.6673L38.3333 20.0923V23.984Z" fill="#171717"/>
</svg>
