<svg width="20" height="20" viewBox="0 0 20 20" fill="none" xmlns="http://www.w3.org/2000/svg">
<path d="M16.3661 16.9875C16.5318 16.9875 16.6908 16.9216 16.808 16.8044C16.9252 16.6872 16.9911 16.5282 16.9911 16.3625V14.4187C17.4973 14.283 17.9446 13.984 18.2637 13.5681C18.5827 13.1523 18.7556 12.6428 18.7556 12.1187C18.7556 11.5946 18.5827 11.0851 18.2637 10.6693C17.9446 10.2534 17.4973 9.95444 16.9911 9.8187V3.63745C16.9911 3.47169 16.9252 3.31272 16.808 3.19551C16.6908 3.0783 16.5318 3.01245 16.3661 3.01245C16.2003 3.01245 16.0414 3.0783 15.9241 3.19551C15.8069 3.31272 15.7411 3.47169 15.7411 3.63745V9.82495C15.2348 9.96069 14.7875 10.2597 14.4685 10.6755C14.1495 11.0913 13.9766 11.6008 13.9766 12.125C13.9766 12.6491 14.1495 13.1586 14.4685 13.5744C14.7875 13.9902 15.2348 14.2892 15.7411 14.425V16.3687C15.7427 16.5334 15.8093 16.6907 15.9263 16.8066C16.0434 16.9225 16.2014 16.9875 16.3661 16.9875ZM15.2223 12.1187C15.2223 11.8925 15.2894 11.6714 15.4151 11.4833C15.5408 11.2952 15.7194 11.1486 15.9284 11.062C16.1374 10.9754 16.3674 10.9528 16.5892 10.9969C16.8111 11.0411 17.0149 11.15 17.1748 11.3099C17.3348 11.4699 17.4437 11.6737 17.4879 11.8956C17.532 12.1174 17.5093 12.3474 17.4228 12.5564C17.3362 12.7654 17.1896 12.944 17.0015 13.0697C16.8134 13.1954 16.5923 13.2625 16.3661 13.2625C16.0627 13.2625 15.7718 13.1419 15.5573 12.9275C15.3428 12.713 15.2223 12.422 15.2223 12.1187Z" fill="#171717"/>
<path d="M10.0031 16.9875C10.1689 16.9875 10.3279 16.9216 10.4451 16.8044C10.5623 16.6872 10.6281 16.5282 10.6281 16.3625V7.69995C11.1883 7.54845 11.6743 7.19864 11.9958 6.71561C12.3173 6.23257 12.4524 5.64919 12.376 5.07399C12.2996 4.49878 12.0169 3.97092 11.5804 3.58859C11.1439 3.20625 10.5834 2.99548 10.0031 2.99548C9.42287 2.99548 8.86237 3.20625 8.42588 3.58859C7.9894 3.97092 7.70665 4.49878 7.63023 5.07399C7.55381 5.64919 7.68893 6.23257 8.01045 6.71561C8.33197 7.19864 8.818 7.54845 9.37813 7.69995V16.3625C9.37813 16.5282 9.44398 16.6872 9.56119 16.8044C9.6784 16.9216 9.83737 16.9875 10.0031 16.9875ZM8.85938 5.4062C8.85814 5.17973 8.92417 4.95798 9.04909 4.76907C9.17401 4.58016 9.35221 4.43259 9.56109 4.34507C9.76997 4.25754 10.0001 4.234 10.2224 4.27742C10.4447 4.32084 10.6491 4.42928 10.8096 4.58898C10.9702 4.74869 11.0798 4.95247 11.1244 5.17451C11.1691 5.39654 11.1468 5.62683 11.0604 5.83619C10.974 6.04555 10.8274 6.22455 10.6392 6.3505C10.451 6.47646 10.2296 6.5437 10.0031 6.5437C9.70087 6.54371 9.4109 6.42406 9.19658 6.21092C8.98226 5.99777 8.86103 5.70846 8.85938 5.4062Z" fill="#171717"/>
<path d="M3.01452 12.3V16.3625C3.01452 16.5282 3.08037 16.6872 3.19758 16.8044C3.31479 16.9216 3.47376 16.9875 3.63952 16.9875C3.80528 16.9875 3.96425 16.9216 4.08147 16.8044C4.19868 16.6872 4.26452 16.5282 4.26452 16.3625V12.3C4.77076 12.1642 5.21807 11.8652 5.5371 11.4494C5.85613 11.0336 6.02905 10.5241 6.02905 9.99995C6.02905 9.47583 5.85613 8.96635 5.5371 8.55051C5.21807 8.13467 4.77076 7.83569 4.26452 7.69995V3.63745C4.26452 3.47169 4.19868 3.31272 4.08147 3.19551C3.96425 3.0783 3.80528 3.01245 3.63952 3.01245C3.47376 3.01245 3.31479 3.0783 3.19758 3.19551C3.08037 3.31272 3.01452 3.47169 3.01452 3.63745V7.69995C2.50829 7.83569 2.06097 8.13467 1.74195 8.55051C1.42292 8.96635 1.25 9.47583 1.25 9.99995C1.25 10.5241 1.42292 11.0336 1.74195 11.4494C2.06097 11.8652 2.50829 12.1642 3.01452 12.3ZM3.63952 8.8562C3.866 8.85496 4.08774 8.92099 4.27665 9.04591C4.46556 9.17083 4.61313 9.34903 4.70066 9.55791C4.78818 9.76679 4.81173 9.99695 4.7683 10.2192C4.72488 10.4415 4.61644 10.6459 4.45674 10.8065C4.29703 10.9671 4.09325 11.0766 3.87122 11.1212C3.64918 11.1659 3.41889 11.1436 3.20954 11.0572C3.00018 10.9708 2.82118 10.8243 2.69522 10.636C2.56927 10.4478 2.50203 10.2264 2.50202 9.99995C2.50202 9.69769 2.62166 9.40772 2.83481 9.1934C3.04795 8.97908 3.33727 8.85785 3.63952 8.8562Z" fill="#171717"/>
</svg>
