<svg width="38" height="51" viewBox="0 0 38 51" fill="none" xmlns="http://www.w3.org/2000/svg">
<path d="M8.09606 33.6774C6.87457 32.8193 5.78737 31.8516 4.84087 30.7742C4.70018 30.6129 2.56416 28.1677 1.62405 25.5806C-0.448015 19.871 3.38275 13.5871 5.38447 10.3032C7.46933 6.88385 8.73559 4.79998 11.3577 3.18063C18.3733 -1.16776 29.2964 1.35482 34.1504 7.72256C36.4783 10.7806 37.1945 14.4322 37.3352 15.2322C37.7637 17.6129 37.7062 20.0903 37.1562 22.6516C36.1649 27.2129 33.8242 30.9935 29.9679 33.671C22.4087 38.9097 14.7727 44.0452 7.16875 49.2193C5.27575 50.5032 2.60892 50.0645 1.26592 48.2581C-0.236971 46.2452 -0.0195323 43.8193 1.98219 42.3419C4.20774 40.7032 6.54841 39.2193 8.83792 37.6645C9.79081 37.0193 10.7437 36.3677 11.6902 35.7226C10.4495 35.0322 9.20245 34.458 8.09606 33.6774ZM12.7007 9.77417C8.7164 12.5677 6.24783 18.9484 8.84431 24.0903C11.946 30.2516 21.0593 32.1871 26.361 27.6516C30.5435 24.0774 31.3173 17.3677 28.126 12.7613C25.5679 9.0645 21.0081 7.52901 17.1518 8.0645C14.6896 8.41289 13.046 9.52901 12.7007 9.77417Z" fill="#DD2C28"/>
<path d="M8.79942 34.329C8.79942 35.4774 8.80581 36.6258 8.80581 37.7806C8.8186 40.5419 8.91453 43.3096 8.8186 46.0709C8.72907 48.5483 6.84886 50.1032 4.33552 50C2.07799 49.9032 0.21057 47.9612 0.204175 45.6774C0.178593 36.4903 0.10185 27.3032 0.159408 18.1161C0.184989 13.4322 1.98845 9.36126 5.19888 5.96772C8.99127 1.96127 13.7046 -0.0129243 19.2365 -2.10845e-05C28.3689 0.0257854 36.2735 6.83223 37.6357 15.8516C39.2473 26.4967 31.7073 35.0322 22.8626 36.8838C19.3452 37.6193 15.8726 37.3871 12.5151 36.1354C11.2488 35.658 10.0721 34.9548 8.79942 34.329ZM19.0191 8.59997C13.3401 8.61288 8.77384 13.0903 8.76105 18.6516C8.74826 24.1484 13.4232 28.7354 19.0255 28.729C24.6917 28.7225 29.3154 24.1419 29.2579 18.5935C29.2067 13.0064 24.6853 8.58707 19.0191 8.59997Z" fill="black"/>
</svg>
