<svg width="14" height="14" viewBox="0 0 14 14" fill="none" xmlns="http://www.w3.org/2000/svg">
<path d="M12.832 6.16634H7.83203V1.16634C7.83203 0.945327 7.74423 0.733366 7.58795 0.577086C7.43167 0.420805 7.21971 0.333008 6.9987 0.333008C6.77768 0.333008 6.56572 0.420805 6.40944 0.577086C6.25316 0.733366 6.16536 0.945327 6.16536 1.16634V6.16634H1.16536C0.944351 6.16634 0.732389 6.25414 0.576109 6.41042C0.419829 6.5667 0.332031 6.77866 0.332031 6.99967C0.332031 7.22069 0.419829 7.43265 0.576109 7.58893C0.732389 7.74521 0.944351 7.83301 1.16536 7.83301H6.16536V12.833C6.16536 13.054 6.25316 13.266 6.40944 13.4223C6.56572 13.5785 6.77768 13.6663 6.9987 13.6663C7.21971 13.6663 7.43167 13.5785 7.58795 13.4223C7.74423 13.266 7.83203 13.054 7.83203 12.833V7.83301H12.832C13.053 7.83301 13.265 7.74521 13.4213 7.58893C13.5776 7.43265 13.6654 7.22069 13.6654 6.99967C13.6654 6.77866 13.5776 6.5667 13.4213 6.41042C13.265 6.25414 13.053 6.16634 12.832 6.16634Z" fill="white"/>
</svg>
