<svg width="40" height="40" viewBox="0 0 40 40" fill="none" xmlns="http://www.w3.org/2000/svg">
<path d="M0.743452 16.6674L7.33512 17.4008L6.66845 33.3341C6.66845 33.5551 6.75625 33.7671 6.91253 33.9234C7.06881 34.0797 7.28077 34.1674 7.50179 34.1674C29.3685 34.1674 27.7518 34.2758 28.1018 33.9091C28.4518 33.5424 28.3935 34.6841 27.6685 17.3924C34.6435 16.6174 34.5685 16.7591 34.8685 16.2841C35.1684 15.8091 35.3018 16.6091 30.7935 3.06745C30.6101 2.53411 30.7018 2.70911 23.6268 0.0507812C23.3351 -0.0492188 11.7268 0.000781251 11.5185 0.000781251C11.3101 0.000781251 12.2685 -0.315886 4.71012 2.50078C4.16845 2.75078 4.56012 2.03411 0.0434522 15.5674C0.00265712 15.6859 -0.0108971 15.8121 0.00379795 15.9365C0.0184931 16.0609 0.0610592 16.1805 0.128329 16.2862C0.195599 16.3919 0.285841 16.4811 0.39234 16.5471C0.498839 16.6131 0.618853 16.6542 0.743452 16.6674ZM22.4101 1.66745C22.2023 2.82126 21.5957 3.86536 20.6962 4.61731C19.7968 5.36925 18.6617 5.78122 17.4893 5.78122C16.3169 5.78122 15.1818 5.36925 14.2824 4.61731C13.3829 3.86536 12.7762 2.82126 12.5685 1.66745H22.4101ZM5.66845 3.97578L10.9435 1.99245C11.1917 3.3927 11.8811 4.67689 12.9111 5.65742C13.9411 6.63794 15.2577 7.26341 16.6685 7.44245V14.1674C16.6685 14.3885 16.7562 14.6004 16.9125 14.7567C17.0688 14.913 17.2808 15.0008 17.5018 15.0008C17.7228 15.0008 17.9348 14.913 18.091 14.7567C18.2473 14.6004 18.3351 14.3885 18.3351 14.1674V7.44245C19.7459 7.26341 21.0624 6.63794 22.0924 5.65742C23.1224 4.67689 23.8119 3.3927 24.0601 1.99245L29.3351 3.97578L33.0518 15.1174L27.6018 15.7258L27.5018 13.3341C27.5018 13.1131 27.414 12.9011 27.2577 12.7449C27.1014 12.5886 26.8895 12.5008 26.6685 12.5008C26.4474 12.5008 26.2355 12.5886 26.0792 12.7449C25.9229 12.9011 25.8351 13.1131 25.8351 13.3341L26.6685 32.5008H8.33512L9.16845 13.3341C9.16845 13.1131 9.08065 12.9011 8.92437 12.7449C8.76809 12.5886 8.55613 12.5008 8.33512 12.5008C8.1141 12.5008 7.90214 12.5886 7.74586 12.7449C7.58958 12.9011 7.50179 13.1131 7.50179 13.3341L7.40179 15.7591L1.95179 15.1508L5.66845 3.97578Z" fill="#171717"/>
<path d="M39.1667 32.5H38.3333V1.66667H39.1667C39.3877 1.66667 39.5996 1.57887 39.7559 1.42259C39.9122 1.26631 40 1.05435 40 0.833333C40 0.61232 39.9122 0.400358 39.7559 0.244078C39.5996 0.0877974 39.3877 0 39.1667 0L35.8333 0C35.6123 0 35.4004 0.0877974 35.2441 0.244078C35.0878 0.400358 35 0.61232 35 0.833333C35 1.05435 35.0878 1.26631 35.2441 1.42259C35.4004 1.57887 35.6123 1.66667 35.8333 1.66667H36.6667V32.5H35.8333C35.6123 32.5 35.4004 32.5878 35.2441 32.7441C35.0878 32.9004 35 33.1123 35 33.3333C35 33.5543 35.0878 33.7663 35.2441 33.9226C35.4004 34.0789 35.6123 34.1667 35.8333 34.1667H39.1667C39.3877 34.1667 39.5996 34.0789 39.7559 33.9226C39.9122 33.7663 40 33.5543 40 33.3333C40 33.1123 39.9122 32.9004 39.7559 32.7441C39.5996 32.5878 39.3877 32.5 39.1667 32.5Z" fill="#171717"/>
<path d="M33.3333 35.8333V36.6667H1.66667V35.8333C1.66667 35.6123 1.57887 35.4004 1.42259 35.2441C1.26631 35.0878 1.05435 35 0.833333 35C0.61232 35 0.400358 35.0878 0.244078 35.2441C0.0877974 35.4004 0 35.6123 0 35.8333L0 39.1667C0 39.3877 0.0877974 39.5996 0.244078 39.7559C0.400358 39.9122 0.61232 40 0.833333 40C1.05435 40 1.26631 39.9122 1.42259 39.7559C1.57887 39.5996 1.66667 39.3877 1.66667 39.1667V38.3333H33.3333V39.1667C33.3333 39.3877 33.4211 39.5996 33.5774 39.7559C33.7337 39.9122 33.9457 40 34.1667 40C34.3877 40 34.5996 39.9122 34.7559 39.7559C34.9122 39.5996 35 39.3877 35 39.1667V35.8333C35 35.6123 34.9122 35.4004 34.7559 35.2441C34.5996 35.0878 34.3877 35 34.1667 35C33.9457 35 33.7337 35.0878 33.5774 35.2441C33.4211 35.4004 33.3333 35.6123 33.3333 35.8333Z" fill="#171717"/>
<path d="M20.0013 10.0006C20.2223 10.0006 20.4343 9.91285 20.5906 9.75657C20.7468 9.60029 20.8346 9.38833 20.8346 9.16732C20.8346 8.9463 20.7468 8.73434 20.5906 8.57806C20.4343 8.42178 20.2223 8.33398 20.0013 8.33398C19.7803 8.33398 19.5683 8.42178 19.412 8.57806C19.2558 8.73434 19.168 8.9463 19.168 9.16732C19.168 9.38833 19.2558 9.60029 19.412 9.75657C19.5683 9.91285 19.7803 10.0006 20.0013 10.0006Z" fill="#171717"/>
<path d="M20.0013 13.3346C20.2223 13.3346 20.4343 13.2468 20.5906 13.0906C20.7468 12.9343 20.8346 12.7223 20.8346 12.5013C20.8346 12.2803 20.7468 12.0683 20.5906 11.912C20.4343 11.7558 20.2223 11.668 20.0013 11.668C19.7803 11.668 19.5683 11.7558 19.412 11.912C19.2558 12.0683 19.168 12.2803 19.168 12.5013C19.168 12.7223 19.2558 12.9343 19.412 13.0906C19.5683 13.2468 19.7803 13.3346 20.0013 13.3346Z" fill="#171717"/>
</svg>
