<svg width="24" height="24" viewBox="0 0 24 24" fill="none" xmlns="http://www.w3.org/2000/svg">
<path d="M21 5H3C2.73478 5 2.48043 5.10536 2.29289 5.29289C2.10536 5.48043 2 5.73478 2 6C2 6.26522 2.10536 6.51957 2.29289 6.70711C2.48043 6.89464 2.73478 7 3 7H5V19C4.99988 19.394 5.0774 19.7842 5.22812 20.1482C5.37884 20.5122 5.59982 20.843 5.87842 21.1216C6.15702 21.4002 6.48778 21.6212 6.85181 21.7719C7.21584 21.9226 7.606 22.0001 8 22H16C16.394 22.0001 16.7842 21.9226 17.1482 21.7719C17.5123 21.6212 17.843 21.4002 18.1216 21.1216C18.4002 20.843 18.6212 20.5123 18.7719 20.1482C18.9226 19.7842 19.0001 19.394 19 19V7H21C21.2652 7 21.5196 6.89464 21.7071 6.70711C21.8946 6.51957 22 6.26522 22 6C22 5.73478 21.8946 5.48043 21.7071 5.29289C21.5196 5.10536 21.2652 5 21 5ZM17 19C16.9996 19.2651 16.8942 19.5192 16.7067 19.7067C16.5192 19.8942 16.2651 19.9996 16 20H8C7.7349 19.9996 7.48076 19.8942 7.2933 19.7067C7.10585 19.5192 7.00037 19.2651 7 19V7H17V19Z" fill="#8B96B1"/>
<path d="M10 4H14C14.2652 4 14.5196 3.89464 14.7071 3.7071C14.8946 3.51957 15 3.26521 15 3C15 2.73478 14.8946 2.48043 14.7071 2.29289C14.5196 2.10536 14.2652 2 14 2H10C9.73478 2 9.48043 2.10536 9.29289 2.29289C9.10536 2.48043 9 2.73478 9 3C9 3.26521 9.10536 3.51957 9.29289 3.7071C9.48043 3.89464 9.73478 4 10 4Z" fill="#8B96B1"/>
<path d="M11 16V11C11 10.7348 10.8946 10.4804 10.7071 10.2929C10.5196 10.1054 10.2652 10 10 10C9.73478 10 9.48043 10.1054 9.29289 10.2929C9.10536 10.4804 9 10.7348 9 11V16C9 16.2652 9.10536 16.5196 9.29289 16.7071C9.48043 16.8946 9.73478 17 10 17C10.2652 17 10.5196 16.8946 10.7071 16.7071C10.8946 16.5196 11 16.2652 11 16Z" fill="#8B96B1"/>
<path d="M15 16V11C15 10.7348 14.8947 10.4804 14.7071 10.2929C14.5196 10.1054 14.2652 10 14 10C13.7348 10 13.4804 10.1054 13.2929 10.2929C13.1054 10.4804 13 10.7348 13 11V16C13 16.2652 13.1054 16.5196 13.2929 16.7071C13.4804 16.8946 13.7348 17 14 17C14.2652 17 14.5196 16.8946 14.7071 16.7071C14.8947 16.5196 15 16.2652 15 16Z" fill="#8B96B1"/>
</svg>
