<svg width="38" height="30" viewBox="0 0 38 30" fill="none" xmlns="http://www.w3.org/2000/svg">
<path d="M16.4987 20H18.1654C18.6072 19.9994 19.0308 19.8236 19.3432 19.5112C19.6557 19.1988 19.8314 18.7752 19.832 18.3333V16.6667C19.8315 16.2248 19.6558 15.8012 19.3433 15.4887C19.0309 15.1763 18.6072 15.0005 18.1654 15H16.4987C16.0568 15.0005 15.6332 15.1763 15.3207 15.4887C15.0083 15.8012 14.8325 16.2248 14.832 16.6667V18.3333C14.8326 18.7752 15.0084 19.1988 15.3208 19.5112C15.6333 19.8236 16.0569 19.9994 16.4987 20ZM16.4987 16.6667H18.1654L18.167 18.3333H16.4987V16.6667Z" fill="#171717"/>
<path d="M4.83333 17.5006H8.16667C8.38768 17.5006 8.59964 17.4128 8.75592 17.2566C8.9122 17.1003 9 16.8883 9 16.6673C9 16.4463 8.9122 16.2343 8.75592 16.0781C8.59964 15.9218 8.38768 15.834 8.16667 15.834H4.83333C4.61232 15.834 4.40036 15.9218 4.24408 16.0781C4.0878 16.2343 4 16.4463 4 16.6673C4 16.8883 4.0878 17.1003 4.24408 17.2566C4.40036 17.4128 4.61232 17.5006 4.83333 17.5006Z" fill="#171717"/>
<path d="M37.2138 15.4052L32.2138 7.07182C32.1399 6.94839 32.0352 6.84625 31.9099 6.77536C31.7847 6.70446 31.6432 6.66724 31.4993 6.66732H23.9993V2.50065C23.9988 2.05878 23.8231 1.63515 23.5106 1.3227C23.1982 1.01025 22.7746 0.834492 22.3327 0.833984H2.33268C1.89081 0.834492 1.46718 1.01025 1.15473 1.3227C0.84228 1.63515 0.666523 2.05878 0.666016 2.50065V23.334C0.666611 23.7758 0.842397 24.1994 1.15483 24.5118C1.46726 24.8243 1.89084 25.0001 2.33268 25.0007H4.07435C4.26969 26.1656 4.87168 27.2237 5.77338 27.9868C6.67507 28.7499 7.81809 29.1686 8.99935 29.1686C10.1806 29.1686 11.3236 28.7499 12.2253 27.9868C13.127 27.2237 13.729 26.1656 13.9243 25.0007H24.9077C25.103 26.1656 25.705 27.2237 26.6067 27.9868C27.5084 28.7499 28.6514 29.1686 29.8327 29.1686C31.0139 29.1686 32.157 28.7499 33.0587 27.9868C33.9604 27.2237 34.5623 26.1656 34.7577 25.0007H36.4993C36.7204 25.0007 36.9323 24.9129 37.0886 24.7566C37.2449 24.6003 37.3327 24.3883 37.3327 24.1673V15.834C37.3328 15.6829 37.2917 15.5346 37.2138 15.4052ZM31.0273 8.33398L34.5273 14.1673H26.0827L23.9993 11.3897V8.33398H31.0273ZM9.83268 2.50157L14.8327 2.50215V7.81882L12.7054 6.75523C12.5897 6.69742 12.4621 6.66732 12.3327 6.66732C12.2033 6.66732 12.0757 6.69742 11.9599 6.75523L9.83268 7.81882V2.50157ZM2.33268 2.50065L8.16601 2.5014V9.16732C8.166 9.30938 8.2023 9.44909 8.27147 9.57317C8.34064 9.69726 8.44039 9.8016 8.56123 9.87629C8.68208 9.95097 8.82001 9.99353 8.96193 9.99991C9.10385 10.0063 9.24504 9.97628 9.3721 9.91273L12.3327 8.43248L15.2933 9.91273C15.4203 9.97628 15.5615 10.0063 15.7034 9.99991C15.8454 9.99353 15.9833 9.95097 16.1041 9.87629C16.225 9.8016 16.3247 9.69726 16.3939 9.57317C16.4631 9.44909 16.4994 9.30938 16.4993 9.16732V2.5024L22.3327 2.50307V23.334H13.9302C13.9269 23.3147 13.919 23.2973 13.9155 23.2781C13.8701 23.0272 13.8053 22.7802 13.7218 22.5392C13.7066 22.4954 13.6905 22.4526 13.6741 22.4092C13.5856 22.1722 13.4792 21.9423 13.3558 21.7215C13.3378 21.6896 13.3176 21.6596 13.299 21.6281C13.1665 21.4013 13.0164 21.1853 12.8502 20.982L12.8358 20.9662C12.6671 20.766 12.4829 20.5793 12.2851 20.4078C12.2629 20.3884 12.2425 20.3677 12.2201 20.3487C12.0252 20.1855 11.8182 20.0374 11.6009 19.9056C11.5643 19.8831 11.5285 19.8604 11.4913 19.8389C11.2734 19.7131 11.0462 19.604 10.8118 19.5126C10.7702 19.4964 10.729 19.4819 10.6868 19.4669C10.443 19.3778 10.1926 19.3082 9.93776 19.2586C9.90443 19.2523 9.8711 19.249 9.83776 19.2433C9.28287 19.1418 8.71416 19.1418 8.15927 19.2433C8.12593 19.249 8.0926 19.2523 8.05926 19.2586C7.80442 19.3082 7.55389 19.3778 7.31002 19.4669C7.26835 19.4819 7.22668 19.4964 7.18585 19.5125C6.95136 19.6039 6.72415 19.7131 6.50618 19.8389C6.46893 19.8605 6.43318 19.8832 6.39652 19.9056C6.17922 20.0374 5.97224 20.1855 5.77735 20.3487C5.75493 20.3677 5.73452 20.3884 5.71235 20.4078C5.51453 20.5793 5.33039 20.766 5.1616 20.9662L5.14727 20.982C4.98085 21.1854 4.83066 21.4017 4.6981 21.6287C4.6796 21.6598 4.65968 21.6896 4.64185 21.7212C4.51867 21.942 4.41253 22.172 4.32435 22.409C4.30768 22.4522 4.29193 22.4951 4.27677 22.5389C4.19321 22.7798 4.12843 23.0269 4.08302 23.2778C4.07952 23.297 4.0716 23.3144 4.06835 23.3337H2.33268V2.50065ZM8.99935 27.5007C8.34008 27.5007 7.69561 27.3052 7.14745 26.9389C6.59928 26.5726 6.17204 26.052 5.91975 25.4429C5.66746 24.8338 5.60145 24.1636 5.73006 23.517C5.85868 22.8704 6.17615 22.2765 6.64233 21.8103C7.1085 21.3441 7.70244 21.0266 8.34905 20.898C8.99565 20.7694 9.66587 20.8354 10.275 21.0877C10.884 21.34 11.4046 21.7673 11.7709 22.3154C12.1372 22.8636 12.3327 23.508 12.3327 24.1673C12.3318 25.0511 11.9804 25.8985 11.3554 26.5234C10.7305 27.1483 9.88314 27.4998 8.99935 27.5007ZM29.8327 27.5007C29.1734 27.5007 28.5289 27.3052 27.9808 26.9389C27.4326 26.5726 27.0054 26.052 26.7531 25.4429C26.5008 24.8338 26.4348 24.1636 26.5634 23.517C26.692 22.8704 27.0095 22.2765 27.4757 21.8103C27.9418 21.3441 28.5358 21.0266 29.1824 20.898C29.829 20.7694 30.4992 20.8354 31.1083 21.0877C31.7174 21.34 32.238 21.7673 32.6042 22.3154C32.9705 22.8636 33.166 23.508 33.166 24.1673C33.1652 25.0511 32.8137 25.8985 32.1888 26.5234C31.5638 27.1483 30.7165 27.4998 29.8327 27.5007ZM35.666 23.334H34.7635C34.7603 23.3147 34.7523 23.2973 34.7488 23.2781C34.7034 23.0272 34.6387 22.7802 34.5551 22.5392C34.5399 22.4954 34.5238 22.4526 34.5074 22.4092C34.4189 22.1722 34.3125 21.9423 34.1891 21.7215C34.1712 21.6896 34.1509 21.6596 34.1323 21.6281C33.9998 21.4013 33.8498 21.1853 33.6835 20.982L33.6692 20.9662C33.5004 20.766 33.3162 20.5793 33.1184 20.4078C33.0963 20.3884 33.0758 20.3677 33.0534 20.3487C32.8585 20.1855 32.6516 20.0374 32.4343 19.9056C32.3976 19.8831 32.3618 19.8604 32.3246 19.8389C32.1067 19.7131 31.8796 19.604 31.6452 19.5126C31.6039 19.4964 31.5623 19.4819 31.5206 19.4669C31.2768 19.3778 31.0263 19.3082 30.7715 19.2586C30.7382 19.2523 30.7048 19.249 30.6715 19.2433C30.1166 19.1418 29.5479 19.1418 28.993 19.2433C28.9597 19.249 28.9263 19.2523 28.893 19.2586C28.6382 19.3082 28.3876 19.3778 28.1438 19.4669C28.1021 19.4819 28.0604 19.4964 28.0196 19.5125C27.7851 19.6039 27.5579 19.7131 27.3399 19.8389C27.3027 19.8605 27.2669 19.8832 27.2303 19.9056C27.013 20.0374 26.806 20.1855 26.6111 20.3487C26.5887 20.3677 26.5683 20.3884 26.5461 20.4078C26.3483 20.5793 26.1641 20.766 25.9953 20.9662L25.981 20.982C25.8146 21.1854 25.6644 21.4017 25.5318 21.6287C25.5133 21.6598 25.4934 21.6896 25.4756 21.7212C25.352 21.9421 25.2455 22.1722 25.157 22.4093C25.1403 22.4526 25.1246 22.4954 25.1094 22.5392C25.0259 22.7802 24.9611 23.0272 24.9157 23.2781C24.9122 23.2973 24.9043 23.3147 24.901 23.334H23.9993V14.1673L24.9993 15.5007C25.0769 15.6042 25.1776 15.6882 25.2933 15.7461C25.409 15.804 25.5366 15.8341 25.666 15.834H35.5273L35.666 16.0651V23.334Z" fill="#171717"/>
</svg>
